PathFileType  4	(X/Y/Z) C:\Users\antoi\Documents\MyRepositories\mobilecap\ResultsAnalysis
DataRate	CameraRate	NumFrames	NumMarkers	Units	OrigDataRate	OrigDataStartFrame	OrigNumFrames
100.0	100.0	5	51	mm	100.0	18	136
Frame#	Time	r_knee			r_shank_antsup			r_ankle			r_calc			r_5meta			r_toe			L_knee			L_shank_antsup			L_ankle			L_calc			L_5meta			L_toe			r_sh2			r_sh3			r_sh4			L_sh2			L_sh3			r_thigh1			r_thigh2			r_thigh3			r_thigh4			r_thigh5			L_thigh1			L_thigh2			L_thigh3			L_thigh4			r.ASIS			r.PSIS			L.ASIS			L.PSIS			C7			R_Shoulder			L_Shoulder			R_Sternum			L_Sternum			R_humerus			R_elbow_med			R_elbow_lat			R_forearm			R_wrist_radius			R_wrist_ulna			L_humerus			L_elbow_med			L_elbow_lat			L_forearm			L_wrist_radius			L_wrist_ulna			R_HJC			L_HJC			R_HJC_reg			L_HJC_reg			
		X1	Y1	Z1	X2	Y2	Z2	X3	Y3	Z3	X4	Y4	Z4	X5	Y5	Z5	X6	Y6	Z6	X7	Y7	Z7	X8	Y8	Z8	X9	Y9	Z9	X10	Y10	Z10	X11	Y11	Z11	X12	Y12	Z12	X13	Y13	Z13	X14	Y14	Z14	X15	Y15	Z15	X16	Y16	Z16	X17	Y17	Z17	X18	Y18	Z18	X19	Y19	Z19	X20	Y20	Z20	X21	Y21	Z21	X22	Y22	Z22	X23	Y23	Z23	X24	Y24	Z24	X25	Y25	Z25	X26	Y26	Z26	X27	Y27	Z27	X28	Y28	Z28	X29	Y29	Z29	X30	Y30	Z30	X31	Y31	Z31	X32	Y32	Z32	X33	Y33	Z33	X34	Y34	Z34	X35	Y35	Z35	X36	Y36	Z36	X37	Y37	Z37	X38	Y38	Z38	X39	Y39	Z39	X40	Y40	Z40	X41	Y41	Z41	X42	Y42	Z42	X43	Y43	Z43	X44	Y44	Z44	X45	Y45	Z45	X46	Y46	Z46	X47	Y47	Z47	X48	Y48	Z48	X49	Y49	Z49	X50	Y50	Z50	X51	Y51	Z51	

18	0.17000000	151.93248	545.65670	-132.34032	191.01170	419.52326	-151.15909	104.68875	92.20322	-174.68513	42.26251	64.24142	-229.23331	233.95706	35.94362	-125.05235	276.72104	61.26546	-195.06987	-8.87098	511.28359	-480.94241	-43.46917	404.99002	-460.09750	-367.81611	282.60659	-419.92820	-404.06969	336.11141	-362.92929	-401.48346	122.21687	-431.62272	-362.04822	105.25322	-367.60532	195.40395	308.36462	-177.87942	130.91802	404.99849	-105.08177	141.71083	288.77371	-116.03956	-96.63062	469.99151	-495.09035	-180.54460	382.18822	-496.50794	190.00550	794.87831	-136.50800	214.28204	686.57982	-158.38556	193.76528	648.10617	-104.67298	109.99421	760.59361	-62.99071	138.33659	650.12997	-90.14929	64.01216	759.09441	-486.32554	81.15616	622.36412	-491.05467	-46.38589	742.66169	-491.35503	-30.18164	605.86230	-491.07260	95.49509	1039.60222	-143.72828	-119.10925	1055.91936	-209.51433	71.80780	1011.72809	-407.36035	-129.51304	1050.00640	-306.11848	-75.96343	1552.70310	-254.82312	-9.16214	1470.56228	-70.66962	10.60668	1517.71506	-431.64655	67.61197	1479.83727	-228.21738	67.15688	1480.97071	-275.80990	-11.29110	1296.35601	-9.17645	-101.06398	1084.62674	-69.32722	-85.75448	1102.23785	10.81600	2.51406	951.85614	22.71407	30.70167	832.20603	28.91959	-5.06582	823.38525	52.92996	26.52602	1347.43542	-517.29722	-48.61253	1133.74826	-482.37230	-9.84391	1150.28427	-552.54966	94.87792	1020.18975	-524.15852	136.37858	908.63255	-542.34799	108.08244	903.65321	-582.25516	14.01927	953.23087	-163.17794	-3.30125	921.87629	-373.52350	25.21995	947.66505	-168.59958	6.42116	936.97943	-342.93134	
19	0.18000000	156.49036	545.63632	-131.94085	193.98963	419.03758	-150.66021	104.84509	92.43240	-174.79017	42.27993	64.59014	-229.11010	233.95758	35.91322	-124.96012	276.82476	60.99451	-195.01546	18.35996	515.13322	-482.41730	-15.34446	409.07220	-461.07192	-340.35395	289.06924	-417.92592	-377.02852	341.34601	-360.24716	-371.62195	128.61939	-431.22594	-331.58398	111.48449	-367.70617	197.40715	307.91748	-177.35521	133.56263	405.11946	-104.82171	143.29869	288.77351	-115.69138	-68.39814	474.30077	-495.79913	-152.84698	387.00864	-496.39340	199.24982	794.32372	-135.85444	221.59653	685.51297	-157.89713	200.39279	647.38947	-104.22419	118.64675	761.28776	-62.38635	144.82560	650.26344	-89.70221	82.57698	764.17340	-486.90787	103.98327	628.10156	-492.46776	-26.96350	744.75588	-490.94010	-6.89723	608.53033	-491.67366	108.38781	1041.24356	-143.61148	-106.61110	1058.79776	-207.31637	83.19259	1015.08247	-407.46980	-117.61293	1052.48872	-303.50254	-62.58443	1555.50353	-253.28448	6.12400	1473.26708	-69.75942	22.02458	1519.95267	-431.06602	81.03562	1482.21835	-228.15633	80.06649	1483.28702	-275.76971	5.35964	1299.07670	-8.23953	-85.01447	1087.00314	-66.28836	-68.27380	1104.82886	13.48380	21.37429	954.88047	23.28165	50.48879	835.54706	28.92698	15.21976	826.34827	53.54234	36.65659	1349.35445	-516.55614	-39.42176	1136.29663	-481.01615	-1.40454	1152.80094	-551.57539	100.29819	1019.95473	-526.59063	137.86296	907.14573	-546.79661	108.92929	903.78766	-586.39128	26.96429	955.21642	-162.73182	7.86166	925.04162	-373.10542	37.41828	951.05483	-167.77602	17.47333	939.62201	-342.07234	
20	0.19000000	160.63432	545.63792	-131.42355	196.76374	418.63199	-150.09206	104.98616	92.69104	-174.87231	42.26103	64.99930	-228.93713	233.95012	35.86093	-124.83774	276.91310	60.74404	-194.92762	45.19472	519.64758	-483.70481	12.57959	413.78865	-461.97404	-312.40507	294.29644	-415.82972	-350.32419	344.95110	-357.75151	-339.31234	133.45967	-430.62001	-298.77653	116.76945	-367.35987	199.25217	307.55940	-176.78576	136.02100	405.26353	-104.48319	144.77752	288.82044	-115.27960	-40.67938	479.12076	-496.10761	-125.40081	392.01975	-496.00369	208.20272	793.67281	-134.90227	228.42006	684.35107	-157.10186	206.56364	646.60650	-103.52308	126.82983	761.87796	-61.69034	150.77047	650.30833	-89.18403	100.77508	769.62966	-487.44617	126.53541	634.40492	-493.69523	-7.74682	747.35568	-490.65496	16.22852	611.75214	-492.30505	120.96974	1042.94628	-143.36052	-94.26419	1061.73807	-205.41317	94.53867	1018.47771	-407.35479	-105.69393	1055.30520	-301.36024	-49.31388	1558.29511	-251.85890	21.28753	1476.07184	-68.97823	33.25195	1522.21112	-430.59037	94.32195	1484.59973	-228.22458	92.94173	1485.60705	-275.82726	21.97909	1301.93756	-7.40934	-68.84468	1089.42373	-63.23803	-50.57850	1107.50903	16.12491	40.38140	958.01683	23.71513	70.28448	838.97851	28.81403	35.74902	829.47806	54.12904	46.35794	1351.30427	-516.02383	-30.56868	1138.82692	-479.89144	6.58566	1155.37340	-550.87789	105.43073	1020.10240	-529.06052	139.41205	906.30982	-551.19329	109.93443	904.52995	-590.50178	39.50285	957.29079	-162.33370	19.00459	928.32696	-372.75676	49.35179	954.15599	-167.15192	28.59781	942.48114	-341.40355	
21	0.20000000	164.41519	545.65858	-130.83703	199.37674	418.30541	-149.53426	105.11834	92.97609	-174.94498	42.18510	65.45050	-228.72810	233.93973	35.79465	-124.70767	276.98748	60.51952	-194.82911	71.61392	524.67628	-484.79813	40.31677	418.95744	-462.76116	-283.96762	298.10976	-413.75247	-323.58847	346.96653	-355.50859	-305.31919	136.69147	-429.74886	-264.31277	120.91859	-366.57247	200.95567	307.28107	-176.26137	138.35782	405.43574	-104.12747	146.19606	288.91729	-114.86453	-13.46460	484.21787	-496.07197	-98.13009	396.92914	-495.39348	216.89061	792.90215	-133.78871	234.74680	683.07192	-156.11950	212.33491	645.75309	-102.67168	134.64258	762.37055	-60.94556	156.29980	650.30570	-88.64371	118.66355	775.40700	-487.91846	148.84255	641.18888	-494.70689	11.23369	750.34943	-490.53740	39.24471	615.41559	-493.03232	133.27231	1044.71198	-142.90251	-82.05314	1064.67112	-203.76378	105.88239	1021.83806	-406.85844	-93.75788	1058.38090	-299.66537	-36.15815	1561.04250	-250.53719	36.31783	1478.96783	-68.31217	44.33638	1524.48659	-430.18108	107.48938	1486.98473	-228.39349	105.75331	1487.92342	-275.96212	38.53996	1304.93768	-6.65945	-52.56087	1091.89188	-60.23663	-32.67826	1110.25221	18.69792	59.49952	961.27632	24.04266	90.08981	842.50102	28.60689	56.48248	832.77270	54.68982	55.64728	1353.30142	-515.69692	-22.10955	1141.38428	-478.97940	14.05642	1158.00905	-550.45383	110.30985	1020.65474	-531.54117	141.08064	906.11348	-555.44787	111.15559	905.81884	-594.50413	51.65628	959.43702	-161.87537	30.18928	931.64971	-372.36817	61.08551	956.93643	-166.62674	39.84048	945.51998	-340.77531	
22	0.21000000	167.90003	545.70934	-130.23270	201.83748	418.05833	-149.02295	105.24776	93.28439	-175.01400	42.03997	65.91806	-228.50013	233.92930	35.72130	-124.58661	277.05339	60.32795	-194.73276	97.60120	530.06860	-485.68882	67.88189	424.38456	-463.38328	-255.03069	300.39389	-411.75510	-296.50458	347.43374	-353.49118	-270.28936	138.36306	-428.60394	-228.75302	123.84044	-365.42654	202.52120	307.08038	-175.81416	140.58427	405.64956	-103.79687	147.54921	289.07217	-114.48322	13.26447	489.32020	-495.79093	-70.92416	401.40645	-494.64439	225.30676	792.00125	-132.67870	240.60871	681.68166	-155.09506	217.77831	644.85352	-101.79307	142.20018	762.79494	-60.20431	161.57709	650.31377	-88.12245	136.33433	781.45935	-488.29899	170.91833	648.36819	-495.46914	29.97891	753.62538	-490.61577	62.17870	619.43306	-493.89172	145.32558	1046.51319	-142.19232	-69.96387	1067.52544	-202.32584	117.28670	1025.12975	-405.92334	-81.82073	1061.60736	-298.35284	-23.11777	1563.71362	-249.30893	51.21221	1481.93282	-67.74553	55.32919	1526.75812	-429.80587	120.55365	1489.37102	-228.63417	118.47647	1490.22487	-276.15520	55.02201	1308.05867	-5.96472	-36.16822	1094.39805	-57.34018	-14.60769	1113.03163	21.16958	78.70034	964.65892	24.30005	109.95294	846.12035	28.33646	77.36804	836.21889	55.22270	64.55638	1355.34982	-515.57449	-14.08354	1143.99861	-478.28075	20.97976	1160.70681	-550.29741	114.98404	1021.60980	-534.02324	142.91353	906.51149	-559.49534	112.63245	907.56862	-598.33789	63.47642	961.61040	-161.29870	41.48104	934.95109	-371.88519	72.69169	959.40839	-166.10467	51.22001	948.68309	-340.07340	
